<svg id="图层_1" data-name="图层 1" xmlns="http://www.w3.org/2000/svg" viewBox="0 0 903.97 1019.85"><defs><style>.cls-1{fill:#5cbaea;}.cls-2{fill:#194f82;}.cls-3{fill:#ffc44f;}</style></defs><title>Data</title><polyline class="cls-1" points="16.79 863.98 16.79 168.69 887.18 168.69 887.18 863.98"/><path class="cls-2" d="M932.75,884.76A16.79,16.79,0,0,1,916,868V189.47H79.13V868a16.79,16.79,0,0,1-33.57,0V172.69A16.79,16.79,0,0,1,62.35,155.9h870.4a16.79,16.79,0,0,1,16.79,16.79V868A16.79,16.79,0,0,1,932.75,884.76Z" transform="translate(-45.56 -4)"/><ellipse class="cls-3" cx="451.99" cy="168.69" rx="435.2" ry="151.9"/><path class="cls-2" d="M497.54,341.37c-118.08,0-229.33-16.13-313.26-45.43-89.46-31.22-138.72-75-138.72-123.26s49.27-92,138.72-123.26C268.21,20.13,379.46,4,497.54,4S726.88,20.13,810.81,49.43c89.46,31.22,138.72,75,138.72,123.26s-49.27,92-138.72,123.26C726.88,325.24,615.63,341.37,497.54,341.37Zm0-303.8C251,37.57,79.13,108.78,79.13,172.69S251,307.8,497.54,307.8,916,236.6,916,172.69,744.12,37.57,497.54,37.57Z" transform="translate(-45.56 -4)"/><path class="cls-1" d="M932.75,659.79c0,83.89-194.85,151.9-435.2,151.9s-435.2-68-435.2-151.9" transform="translate(-45.56 -4)"/><path class="cls-2" d="M497.54,828.47c-118.08,0-229.33-16.13-313.26-45.43C94.83,751.82,45.56,708,45.56,659.79H79.13c0,63.9,171.83,135.11,418.41,135.11S916,723.69,916,659.79h33.57c0,48.26-49.27,92-138.72,123.26C726.88,812.34,615.63,828.47,497.54,828.47Z" transform="translate(-45.56 -4)"/><path class="cls-1" d="M932.75,410.6c0,83.89-194.85,151.9-435.2,151.9s-435.2-68-435.2-151.9" transform="translate(-45.56 -4)"/><path class="cls-2" d="M497.54,579.29c-118.08,0-229.33-16.13-313.26-45.43-89.46-31.22-138.72-75-138.72-123.26H79.13c0,63.9,171.83,135.11,418.41,135.11S916,474.51,916,410.61h33.57c0,48.26-49.27,92-138.72,123.26C726.88,563.16,615.63,579.29,497.54,579.29Z" transform="translate(-45.56 -4)"/><path class="cls-1" d="M932.75,855.17c0,83.89-194.85,151.9-435.2,151.9s-435.2-68-435.2-151.9" transform="translate(-45.56 -4)"/><path class="cls-2" d="M497.54,1023.85c-118.08,0-229.33-16.13-313.26-45.43-89.46-31.22-138.72-75-138.72-123.26a16.79,16.79,0,0,1,33.57,0c0,63.9,171.83,135.11,418.41,135.11S916,919.07,916,855.17a16.79,16.79,0,0,1,33.57,0c0,48.26-49.27,92-138.72,123.26C726.88,1007.72,615.63,1023.85,497.54,1023.85Z" transform="translate(-45.56 -4)"/></svg>