<?xml version="1.0" encoding="UTF-8" standalone="yes"?><svg xmlns="http://www.w3.org/2000/svg" xmlns:xlink="http://www.w3.org/1999/xlink" version="1.2" baseProfile="tiny" x="0" y="0" width="256" height="256" viewBox="0 0 256 256"><defs/><defs/><g id="Page-1" fill="none" fill-rule="evenodd" stroke="none" stroke-width="1"><g id="设置" fill="#868686" transform="matrix(1,0,0,1,28,28)"><g id="Group-3" transform="matrix(1,0,0,1,0,0.241379)"><path id="Fill-1" fill="#00b0f0" fill-opacity="1" d="M 97.9613 195.735 C 96.5782 195.735 95.1944 195.771 93.8142 195.727 C 89.2061 195.585 86.5733 193.617 84.9287 189.345 C 83.1434 184.706 81.1355 180.151 79.425 175.486 C 76.7779 168.271 61.7325 162.714 54.9201 166.005 C 50.7219 168.035 46.4228 169.855 42.1697 171.77 C 38.0726 173.616 35.2189 173.144 32.0401 170.035 C 29.8377 167.879 27.6587 165.697 25.5025 163.497 C 22.7157 160.652 22.2239 157.536 23.7626 153.874 C 25.9728 148.612 28.4828 143.431 30.1606 138 C 32.2658 131.173 26.9905 119.55 20.5698 116.454 C 16.0988 114.299 11.3465 112.716 6.69324 110.951 C 1.83336 109.107 0.126397 106.83 0.0386683 101.709 C -0.00749199 99.0539 -0.0217509 96.3968 0.047127 93.7426 C 0.174732 88.8423 1.96169 86.6011 6.65095 84.7956 C 11.3939 82.97 16.2612 81.3277 20.7228 78.9477 C 28.3093 74.9036 32.6121 62.9553 29.5921 54.9304 C 27.9543 50.5781 25.8377 46.4049 23.9212 42.1581 C 22.105 38.1348 22.6062 35.1535 25.6924 32.0221 C 27.7825 29.9035 29.8887 27.7999 32.0099 25.7112 C 35.1357 22.6346 38.1622 22.1717 42.1613 23.8727 C 47.3187 26.0658 52.4156 28.5088 57.7523 30.1476 C 64.5891 32.2476 76.1613 27.0154 79.3051 20.5527 C 81.5198 15.9986 83.1388 11.1512 84.9465 6.40476 C 86.6044 2.04955 89.0703 0.18731 93.7876 0.0760345 C 96.7633 0.00627586 99.7418 0.0328276 102.718 0.0873793 C 106.659 0.160034 109.269 2.10531 110.688 5.77959 C 112.481 10.4167 114.494 14.9718 116.161 19.6524 C 119.024 27.6848 134.666 33.2582 141.872 29.3887 C 145.695 27.336 149.76 25.732 153.717 23.9255 C 157.702 22.1067 160.762 22.6252 163.868 25.6859 C 166.064 27.8499 168.257 30.0155 170.406 32.2249 C 173.246 35.1448 173.708 38.0868 172.133 41.8243 C 169.959 46.9857 167.484 52.0612 165.814 57.3858 C 163.703 64.1132 168.124 75.0376 174.345 78.4263 C 178.967 80.9449 183.995 82.7513 188.93 84.6512 C 194.015 86.6086 195.872 88.9519 195.956 94.3441 C 195.993 96.7871 195.998 99.231 195.949 101.673 C 195.846 106.621 193.901 109.184 189.239 110.987 C 184.502 112.82 179.628 114.427 175.164 116.792 C 167.689 120.753 163.297 132.541 166.163 140.511 C 167.699 144.783 169.829 148.846 171.742 152.978 C 173.884 157.604 173.4 160.519 169.777 164.165 C 167.83 166.125 165.888 168.092 163.91 170.023 C 160.785 173.071 157.751 173.55 153.744 171.836 C 148.783 169.715 143.904 167.295 138.773 165.706 C 131.195 163.356 119.741 168.555 116.27 175.7 C 114.426 179.494 113.086 183.542 111.64 187.518 C 109.174 194.308 107.217 195.724 99.8749 195.757 C 99.2376 195.76 98.5994 195.757 97.9613 195.757 L 97.9613 195.735 M 49.0575 97.8233 C 48.9405 124.649 70.6282 146.609 97.3542 146.726 C 124.763 146.847 146.756 125.368 146.881 98.3599 C 147.006 71.1596 125.537 49.1789 98.6997 49.028 C 70.8689 48.8726 49.1757 70.1958 49.0575 97.8233"/></g><path id="Fill-4" fill="#00b0f0" fill-opacity="1" d="M 97.899 127.461 C 82.0607 127.633 68.7428 114.507 68.454 98.441 C 68.1643 82.3844 81.6254 68.725 97.8282 68.6336 C 113.782 68.543 127.159 81.6586 127.352 97.5773 C 127.553 114.175 114.637 127.28 97.899 127.461 Z"/></g></g></svg>
