<?xml version="1.0" encoding="UTF-8" standalone="yes"?><svg id="шо╛шоб" xmlns="http://www.w3.org/2000/svg" xmlns:xlink="http://www.w3.org/1999/xlink" version="1.2" baseProfile="tiny" x="0" y="0" width="1024" height="1024" viewBox="0 0 1024 1024"><defs/><g><g><polygon fill="#00b0f0" fill-opacity="1" points="880,864 752,864 752,336 576,160 272,160 272,64 704,64 880,240"/><g><polygon fill="#00b0f0" fill-opacity="1" points="704,64 704,240 880,240"/><path fill="#00b0f0" fill-opacity="1" d="M 707.314 56 L 264 56 L 264 168 L 572.687 168 L 744 339.313 L 744 872 L 888 872 L 888 236.686 L 707.314 56 M 860.686 232 L 712 232 L 712 83.314 L 860.686 232 M 760 856 L 760 332.686 L 579.314 152 L 280 152 L 280 72 L 696 72 L 696 240 C 696 244.418 699.582 248 704 248 L 872 248 L 872 856 L 760 856"/></g></g><g><polygon fill="#00b0f0" fill-opacity="1" points="576,160 576,336 752,336"/><path fill="#00b0f0" fill-opacity="1" d="M 579.314 152 L 136 152 L 136 968 L 760 968 L 760 332.686 L 579.314 152 M 732.686 328 L 584 328 L 584 179.314 L 732.686 328 M 152 952 L 152 168 L 568 168 L 568 336 C 568 340.418 571.582 344 576 344 L 744 344 L 744 952 L 152 952"/></g><g><g><g><rect fill="#00b0f0" fill-opacity="1" x="208" y="376" width="480" height="16"/><rect fill="#00b0f0" fill-opacity="1" x="208" y="440" width="480" height="16"/><rect fill="#00b0f0" fill-opacity="1" x="208" y="504" width="480" height="16"/></g><g><rect fill="#00b0f0" fill-opacity="1" x="208" y="568" width="480" height="16"/><rect fill="#00b0f0" fill-opacity="1" x="208" y="632" width="480" height="16"/><rect fill="#00b0f0" fill-opacity="1" x="208" y="696" width="480" height="16"/></g><g><rect fill="#00b0f0" fill-opacity="1" x="208" y="760" width="480" height="16"/><rect fill="#00b0f0" fill-opacity="1" x="208" y="824" width="480" height="16"/></g></g></g></g></svg>
