<?xml version="1.0" encoding="UTF-8" standalone="yes"?><svg id="图层_1" xmlns="http://www.w3.org/2000/svg" xmlns:xlink="http://www.w3.org/1999/xlink" version="1.2" baseProfile="tiny" x="0" y="0" width="1024" height="1024" viewBox="0 0 1024 1024"><defs/><defs/><path fill="#00b0f0" fill-opacity="1" d="M 489.88 568.83 C 386.25 568.83 296.4 548.56 222.81 508.58 L 219.81 506.9 L 212.84 503 L 220.74 489.09 L 227.74 493.04 C 228.64 493.55 229.55 494.04 230.48 494.56 C 301.71 533.26 388.99 552.88 489.92 552.88 C 590.85 552.88 678.23 533.26 749.34 494.57 C 750.28 494.06 751.19 493.57 752.09 493.04 L 759.09 489.09 L 767.01 502.99 L 760.01 506.99 C 759.01 507.55 758.01 508.11 757.01 508.67 C 683.46 548.56 593.61 568.83 489.88 568.83 Z"/><path fill="#00b0f0" fill-opacity="1" d="M 489.88 710.15 C 386.25 710.15 296.4 689.88 222.81 649.89 C 182.06 627.78 151.95 602.64 133.33 575.17 L 128.84 568.55 L 142.08 559.55 L 146.57 566.18 C 163.74 591.52 192 615 230.45 635.83 C 301.67 674.53 388.95 694.15 489.88 694.15 C 590.81 694.15 678.19 674.53 749.3 635.84 C 787.79 615 816 591.52 833.18 566.2 L 837.67 559.57 L 850.91 568.57 L 846.42 575.19 C 827.8 602.66 797.7 627.8 756.94 649.92 C 683.47 689.87 593.61 710.15 489.88 710.15 Z"/><path fill="#00b0f0" fill-opacity="1" d="M 752.88 510.82 L 745.13 496.82 L 752.13 492.95 C 789.13 472.47 816.43 449.57 833.13 424.88 L 837.62 418.26 L 850.86 427.26 L 846.37 433.88 C 828.21 460.67 799.09 485.26 759.83 506.97 L 752.88 510.82 Z"/><path fill="#00b0f0" fill-opacity="1" d="M 226.88 510.82 L 219.88 506.95 C 180.61 485.24 151.49 460.65 133.33 433.86 L 128.84 427.24 L 142.08 418.24 L 146.57 424.86 C 163.31 449.55 190.57 472.45 227.62 492.92 L 234.62 496.8 L 226.88 510.82 Z"/><path fill="#00b0f0" fill-opacity="1" d="M 489.88 851.46 C 386.25 851.46 296.4 831.19 222.81 791.21 C 147.74 750.48 109.68 700.03 109.68 641.21 C 109.68 616.21 116.68 592.5 130.4 570.63 C 116.64 548.75 109.68 525 109.68 500 C 109.68 475 116.68 451.28 130.4 429.41 C 116.64 407.48 109.68 383.72 109.68 358.68 C 109.68 300.03 147.74 249.58 222.81 208.73 C 296.4 168.73 386.25 148.48 489.88 148.48 C 593.51 148.48 683.46 168.7 757 208.68 C 832.06 249.53 870.12 299.98 870.12 358.68 C 870.12 383.68 863.12 407.48 849.41 429.41 C 863.11 451.23 870.07 475 870.07 500 C 870.07 525 863.07 548.8 849.36 570.73 C 863.11 592.6 870.07 616.32 870.07 641.31 C 870.07 700.08 832.01 750.53 756.94 791.31 C 683.46 831.19 593.61 851.46 489.88 851.46 M 489.88 164.46 C 388.95 164.46 301.67 184.08 230.45 222.77 C 160.93 260.6 125.68 306.32 125.68 358.66 C 125.68 382.16 132.68 404.45 146.57 424.91 L 149.62 429.4 L 146.57 433.89 C 132.71 454.3 125.68 476.53 125.68 499.98 C 125.68 523.43 132.68 545.77 146.57 566.23 L 149.62 570.72 L 146.57 575.21 C 132.71 595.61 125.68 617.85 125.68 641.29 C 125.68 693.74 160.93 739.46 230.45 777.18 C 301.67 815.87 388.95 835.49 489.88 835.49 C 590.81 835.49 678.19 815.88 749.3 777.18 C 818.83 739.46 854.07 693.74 854.07 641.29 C 854.07 617.85 847.07 595.61 833.19 575.21 L 830.13 570.72 L 833.13 566.23 C 847 545.74 854.07 523.45 854.07 500 C 854.07 476.55 847.07 454.32 833.19 433.91 L 830.13 429.42 L 833.13 424.93 C 846.99 404.47 854.02 382.18 854.02 358.68 C 854.02 306.34 818.77 260.62 749.25 222.79 C 678.19 184.05 590.91 164.43 489.88 164.43 L 489.88 164.46"/><path fill="#00b0f0" fill-opacity="1" d="M 814.17 541.12 C 813.315 542.03 812.855 543.242 812.89 544.49 C 812.86 545.766 813.385 546.992 814.33 547.85 C 818.997 552.483 823.33 557.183 827.33 561.95 C 828.102 562.96 829.264 563.598 830.53 563.71 C 831.808 563.841 833.083 563.435 834.05 562.59 C 835.059 561.815 835.7 560.656 835.82 559.39 C 835.94 558.11 835.536 556.837 834.7 555.86 C 830.54 550.807 826 545.84 821.08 540.96 C 820.114 540.091 818.848 539.632 817.55 539.68 C 816.283 539.693 815.073 540.211 814.19 541.12"/><path fill="#00b0f0" fill-opacity="1" d="M 808.24 531.19 C 808.129 529.921 807.49 528.756 806.48 527.98 C 801.7 523.98 796.573 520.03 791.1 516.13 C 790.01 515.42 788.696 515.136 787.41 515.33 C 786.188 515.629 785.119 516.37 784.41 517.41 C 783.708 518.444 783.419 519.703 783.6 520.94 C 783.859 522.183 784.614 523.266 785.69 523.94 C 790.89 527.653 795.75 531.447 800.27 535.32 C 801.25 536.142 802.515 536.544 803.79 536.44 C 805.114 536.358 806.341 535.714 807.16 534.67 C 808.016 533.709 808.424 532.429 808.28 531.15"/><path fill="#00b0f0" fill-opacity="1" d="M 751.36 501.23 C 751.7 502.446 752.505 503.481 753.6 504.11 C 759.34 507.29 764.79 510.497 769.95 513.73 C 770.962 514.475 772.261 514.711 773.47 514.37 C 774.733 514.158 775.834 513.391 776.47 512.28 C 777.233 511.215 777.473 509.862 777.12 508.6 C 776.859 507.345 776.106 506.247 775.03 505.55 C 769.697 502.27 764.09 499.013 758.21 495.78 C 757.155 495.125 755.871 494.95 754.68 495.3 C 753.462 495.637 752.426 496.442 751.8 497.54 C 751.141 498.652 750.968 499.986 751.32 501.23"/><path fill="#00b0f0" fill-opacity="1" d="M 770.75 363.12 C 770.415 361.895 769.605 360.855 768.5 360.23 C 764.307 357.75 759.93 355.24 755.37 352.7 L 755.53 352.86 L 753.28 351.58 C 752.172 350.919 750.84 350.745 749.6 351.1 C 748.37 351.417 747.324 352.228 746.71 353.34 C 746.057 354.454 745.884 355.786 746.23 357.03 C 746.549 358.26 747.364 359.303 748.48 359.91 L 750.72 361.19 C 755.227 363.683 759.56 366.14 763.72 368.56 C 764.77 369.219 766.052 369.393 767.24 369.04 C 768.502 368.731 769.585 367.923 770.24 366.8 C 770.897 365.691 771.07 364.361 770.72 363.12"/><path fill="#00b0f0" fill-opacity="1" d="M 802.79 385.55 C 802.606 384.266 801.914 383.109 800.87 382.34 C 795.93 378.5 790.697 374.657 785.17 370.81 C 784.081 370.098 782.767 369.813 781.48 370.01 C 780.26 370.314 779.192 371.054 778.48 372.09 C 777.784 373.123 777.499 374.378 777.68 375.61 C 777.923 376.87 778.676 377.974 779.76 378.66 C 785.093 382.4 790.167 386.137 794.98 389.87 C 795.947 390.723 797.228 391.129 798.51 390.99 C 801.115 390.525 802.967 388.193 802.83 385.55"/><path fill="#00b0f0" fill-opacity="1" d="M 843.65 426.56 C 843.17 425.87 842.65 425.12 842.05 424.32 C 841.339 423.313 840.262 422.624 839.05 422.4 C 837.771 422.148 836.445 422.435 835.383 423.191 C 834.322 423.948 833.619 425.109 833.44 426.4 C 833.251 427.637 833.541 428.899 834.25 429.93 C 834.83 430.73 835.37 431.48 835.85 432.17 C 836.588 433.244 837.755 433.945 839.05 434.09 C 841.615 434.531 844.053 432.814 844.5 430.25 C 844.783 428.962 844.491 427.615 843.7 426.56"/><path fill="#00b0f0" fill-opacity="1" d="M 831.15 412.14 C 831.208 410.891 830.744 409.674 829.87 408.78 C 825.461 403.901 820.809 399.249 815.93 394.84 C 814.944 394.021 813.678 393.619 812.4 393.72 C 811.111 393.783 809.901 394.359 809.04 395.32 C 808.22 396.305 807.818 397.572 807.92 398.85 C 807.966 400.098 808.549 401.265 809.52 402.05 C 814.171 406.204 818.61 410.59 822.82 415.19 C 823.623 416.139 824.779 416.717 826.02 416.79 C 827.323 416.869 828.6 416.405 829.55 415.51 C 830.53 414.659 831.11 413.437 831.15 412.14 Z"/><path fill="#00b0f0" fill-opacity="1" d="M 711.78 341.17 C 712.252 342.375 713.174 343.35 714.35 343.89 C 720.297 346.29 726.117 348.853 731.81 351.58 C 732.959 352.165 734.305 352.224 735.5 351.74 C 736.71 351.368 737.701 350.494 738.22 349.34 C 738.805 348.191 738.864 346.845 738.38 345.65 C 738.008 344.44 737.134 343.449 735.98 342.93 C 730.127 340.123 724.127 337.457 717.98 334.93 C 716.796 334.47 715.484 334.47 714.3 334.93 C 713.129 335.416 712.2 336.349 711.717 337.521 C 711.235 338.694 711.24 340.011 711.73 341.18"/><path fill="#00b0f0" fill-opacity="1" d="M 675.9 327.87 C 676.414 329.028 677.407 329.904 678.62 330.27 C 684.713 332.33 690.693 334.467 696.56 336.68 C 697.755 337.166 699.102 337.108 700.25 336.52 C 701.472 336.044 702.413 335.04 702.81 333.79 C 703.259 332.603 703.206 331.284 702.663 330.138 C 702.12 328.991 701.133 328.114 699.93 327.71 C 693.93 325.443 687.84 323.253 681.66 321.14 C 680.439 320.763 679.118 320.877 677.98 321.46 C 676.871 322.041 676.013 323.009 675.57 324.18 C 675.192 325.406 675.31 326.731 675.9 327.87 Z"/><path fill="#00b0f0" fill-opacity="1" d="M 666.12 317.77 C 665.532 316.607 664.49 315.738 663.24 315.37 C 657.153 313.577 650.903 311.867 644.49 310.24 C 643.249 309.9 641.923 310.073 640.81 310.72 C 638.619 312.138 637.913 315.019 639.2 317.29 C 639.809 318.409 640.856 319.223 642.09 319.54 C 648.39 321.14 654.53 322.847 660.51 324.66 C 661.752 325.039 663.096 324.864 664.2 324.18 C 665.348 323.614 666.174 322.552 666.44 321.3 C 666.902 320.14 666.783 318.828 666.12 317.77 Z"/><path fill="#00b0f0" fill-opacity="1" d="M 628.63 308 C 627.924 306.957 626.854 306.215 625.63 305.92 C 619.383 304.687 613.027 303.51 606.56 302.39 C 605.274 302.21 603.966 302.494 602.87 303.19 C 601.865 303.995 601.184 305.134 600.95 306.4 C 600.758 307.632 601.044 308.892 601.75 309.92 C 602.49 310.996 603.662 311.697 604.96 311.84 C 611.307 312.973 617.553 314.15 623.7 315.37 C 624.913 315.697 626.209 315.462 627.23 314.73 C 628.346 314.077 629.109 312.957 629.31 311.68 C 629.627 310.418 629.394 309.081 628.67 308"/><path fill="#00b0f0" fill-opacity="1" d="M 552.2 296.94 C 551.335 295.984 550.127 295.409 548.84 295.34 C 542.54 294.813 536.077 294.387 529.45 294.06 C 526.876 294.047 524.713 295.989 524.45 298.55 C 524.377 299.851 524.844 301.124 525.74 302.07 C 526.538 303.025 527.697 303.604 528.94 303.67 C 535.46 303.99 541.817 304.417 548.01 304.95 C 549.29 305.098 550.571 304.69 551.53 303.83 C 552.577 303.019 553.219 301.792 553.29 300.47 C 553.405 299.191 553.002 297.919 552.17 296.94"/><path fill="#00b0f0" fill-opacity="1" d="M 568.07 297.1 C 566.808 296.966 565.544 297.324 564.54 298.1 C 563.571 298.907 562.942 300.05 562.78 301.3 C 562.622 302.56 562.983 303.831 563.78 304.82 C 564.544 305.867 565.697 306.563 566.98 306.75 C 573.393 307.45 579.733 308.2 586 309 C 587.234 309.264 588.521 308.971 589.52 308.2 C 590.549 307.442 591.198 306.274 591.3 305 C 591.563 303.766 591.27 302.479 590.5 301.48 C 589.719 300.449 588.568 299.761 587.29 299.56 C 580.963 298.727 574.557 297.923 568.07 297.15"/><path fill="#00b0f0" fill-opacity="1" d="M 491.16 292.94 C 488.591 293.057 486.569 295.174 486.569 297.745 C 486.569 300.316 488.591 302.433 491.16 302.55 C 497.507 302.55 503.807 302.657 510.06 302.87 C 511.315 302.947 512.542 302.481 513.43 301.59 C 514.418 300.749 515 299.527 515.03 298.23 C 515.088 296.93 514.628 295.661 513.75 294.7 C 512.861 293.793 511.65 293.275 510.38 293.26 C 504.027 293.04 497.62 292.933 491.16 292.94 Z"/><path fill="#00b0f0" fill-opacity="1" d="M 476.26 297.74 C 476.238 296.475 475.721 295.269 474.82 294.38 C 473.854 293.511 472.588 293.052 471.29 293.1 C 464.77 293.2 458.307 293.413 451.9 293.74 C 449.33 293.98 447.377 296.159 447.42 298.74 C 447.462 300.034 448.042 301.252 449.02 302.1 C 449.914 302.974 451.131 303.438 452.38 303.38 C 458.693 303.06 465.05 302.847 471.45 302.74 C 472.729 302.769 473.957 302.244 474.82 301.3 C 475.781 300.382 476.305 299.098 476.26 297.77"/><path fill="#00b0f0" fill-opacity="1" d="M 140.91 575.41 C 142.157 575.244 143.271 574.543 143.96 573.49 C 147.46 568.257 151.256 563.229 155.33 558.43 C 156.242 557.556 156.712 556.319 156.61 555.06 C 156.51 553.746 155.873 552.531 154.85 551.7 C 153.935 550.875 152.717 550.469 151.49 550.58 C 150.205 550.668 149 551.239 148.12 552.18 C 143.765 557.22 139.699 562.502 135.94 568 C 135.219 569.086 134.933 570.403 135.14 571.69 C 135.442 572.914 136.187 573.983 137.23 574.69 C 138.31 575.415 139.648 575.648 140.91 575.33"/><path fill="#00b0f0" fill-opacity="1" d="M 151.49 409.26 C 150.206 409.352 149.003 409.923 148.12 410.86 C 143.767 415.915 139.7 421.21 135.94 426.72 C 135.22 427.806 134.935 429.123 135.14 430.41 C 135.439 431.635 136.184 432.705 137.23 433.41 C 138.309 434.14 139.648 434.373 140.91 434.05 C 142.159 433.887 143.274 433.186 143.96 432.13 C 147.46 426.897 151.256 421.869 155.33 417.07 C 156.24 416.199 156.71 414.965 156.61 413.71 C 156.51 412.393 155.874 411.175 154.85 410.34 C 153.933 409.519 152.717 409.114 151.49 409.22"/><path fill="#00b0f0" fill-opacity="1" d="M 183.69 525.58 C 182.898 524.594 181.747 523.961 180.49 523.82 C 179.231 523.712 177.976 524.068 176.96 524.82 C 171.56 529.14 166.487 533.52 161.74 537.96 C 160.853 538.858 160.339 540.058 160.3 541.32 C 160.241 542.572 160.704 543.793 161.58 544.69 C 162.435 545.659 163.649 546.237 164.94 546.29 C 166.223 546.342 167.461 545.813 168.31 544.85 C 172.863 540.63 177.723 536.463 182.89 532.35 C 183.976 531.624 184.681 530.45 184.81 529.15 C 184.949 527.868 184.543 526.587 183.69 525.62"/><path fill="#00b0f0" fill-opacity="1" d="M 216.06 504.11 C 215.43 503.043 214.382 502.289 213.17 502.03 C 211.928 501.706 210.608 501.878 209.49 502.51 C 203.79 506.03 198.34 509.553 193.14 513.08 C 192.05 513.78 191.295 514.897 191.053 516.17 C 190.811 517.443 191.103 518.759 191.86 519.81 C 192.552 520.838 193.637 521.536 194.86 521.74 C 196.145 522.033 197.493 521.739 198.54 520.94 C 203.587 517.52 208.873 514.1 214.4 510.68 C 215.536 510.096 216.358 509.043 216.65 507.8 C 216.965 506.535 216.732 505.195 216.01 504.11"/><path fill="#00b0f0" fill-opacity="1" d="M 183.69 384.27 C 182.917 383.259 181.757 382.618 180.49 382.5 C 179.229 382.374 177.967 382.731 176.96 383.5 C 171.667 387.833 166.7 392.167 162.06 396.5 C 161.171 397.401 160.656 398.605 160.62 399.87 C 160.562 401.119 161.026 402.336 161.9 403.23 C 162.755 404.205 163.974 404.784 165.27 404.83 C 166.55 404.881 167.784 404.352 168.63 403.39 C 173.07 399.283 177.823 395.17 182.89 391.05 C 183.974 390.322 184.678 389.149 184.81 387.85 C 184.946 386.572 184.54 385.295 183.69 384.33"/><path fill="#00b0f0" fill-opacity="1" d="M 215.74 363 C 215.114 361.927 214.065 361.169 212.85 360.91 C 211.607 360.592 210.29 360.764 209.17 361.39 C 203.47 364.917 198.02 368.443 192.82 371.97 C 191.788 372.687 191.05 373.752 190.74 374.97 C 190.546 376.256 190.83 377.57 191.54 378.66 C 192.247 379.694 193.352 380.389 194.59 380.58 C 195.875 380.873 197.223 380.579 198.27 379.78 C 203.317 376.36 208.603 372.94 214.13 369.52 C 215.27 368.941 216.094 367.886 216.38 366.64 C 216.693 365.378 216.461 364.042 215.74 362.96"/><path fill="#00b0f0" fill-opacity="1" d="M 412.81 296.94 C 411.555 297.102 410.407 297.735 409.6 298.71 C 408.827 299.712 408.469 300.972 408.6 302.23 C 408.717 303.5 409.359 304.663 410.37 305.44 C 411.337 306.285 412.612 306.691 413.89 306.56 C 420.297 305.813 426.707 305.17 433.12 304.63 C 434.441 304.554 435.665 303.913 436.48 302.87 C 437.336 301.909 437.744 300.629 437.6 299.35 C 437.497 298.078 436.857 296.911 435.84 296.14 C 434.877 295.288 433.599 294.881 432.32 295.02 C 425.8 295.553 419.283 296.193 412.77 296.94"/><path fill="#00b0f0" fill-opacity="1" d="M 374.2 302.39 C 372.906 302.563 371.742 303.265 370.984 304.328 C 370.226 305.391 369.942 306.72 370.2 308 C 370.42 309.214 371.11 310.292 372.12 311 C 373.171 311.8 374.522 312.093 375.81 311.8 L 394.71 308.8 C 395.988 308.718 397.164 308.073 397.92 307.04 C 398.702 305.981 398.994 304.638 398.72 303.35 C 398.594 302.143 397.953 301.049 396.96 300.35 C 395.905 299.554 394.583 299.195 393.27 299.35 L 374.21 302.35"/><path fill="#00b0f0" fill-opacity="1" d="M 358.49 306.72 C 357.474 305.987 356.203 305.698 354.97 305.92 C 348.51 307.253 342.153 308.693 335.9 310.24 C 334.672 310.533 333.6 311.28 332.9 312.33 C 332.268 313.448 332.096 314.768 332.42 316.01 C 332.674 317.221 333.43 318.268 334.5 318.89 C 335.583 319.619 336.923 319.855 338.19 319.54 C 344.33 318.067 350.577 316.677 356.93 315.37 C 358.205 315.163 359.322 314.401 359.98 313.29 C 360.712 312.269 360.947 310.973 360.62 309.76 C 360.4 308.5 359.635 307.402 358.53 306.76"/><path fill="#00b0f0" fill-opacity="1" d="M 297.61 330 C 298.756 330.584 300.098 330.642 301.29 330.16 C 307.377 328.213 313.467 326.343 319.56 324.55 C 322.099 323.709 323.562 321.056 322.92 318.46 C 322.53 317.221 321.668 316.187 320.52 315.58 C 319.384 314.992 318.061 314.877 316.84 315.26 C 310.64 317.1 304.443 319.023 298.25 321.03 C 297.077 321.466 296.108 322.321 295.53 323.43 C 294.948 324.572 294.833 325.895 295.21 327.12 C 295.614 328.351 296.472 329.381 297.61 330 Z"/><path fill="#00b0f0" fill-opacity="1" d="M 261.72 343.41 C 262.883 343.97 264.237 343.97 265.4 343.41 C 271.28 341.03 277.21 338.733 283.19 336.52 C 284.423 336.098 285.414 335.165 285.91 333.96 C 286.478 332.807 286.536 331.468 286.07 330.27 C 285.612 329.097 284.683 328.168 283.51 327.71 C 282.357 327.141 281.018 327.083 279.82 327.55 C 273.733 329.817 267.7 332.167 261.72 334.6 C 260.589 335.121 259.681 336.029 259.16 337.16 C 258.7 338.344 258.7 339.656 259.16 340.84 C 259.615 342.018 260.544 342.95 261.72 343.41 Z"/><path fill="#00b0f0" fill-opacity="1" d="M 250.34 345 C 249.798 343.827 248.823 342.91 247.62 342.44 C 246.396 342.06 245.071 342.175 243.93 342.76 C 238.11 345.56 232.343 348.443 226.63 351.41 C 225.502 352.041 224.647 353.067 224.23 354.29 C 223.877 355.517 223.991 356.832 224.55 357.98 C 225.158 359.093 226.201 359.904 227.43 360.22 C 228.645 360.679 230.002 360.561 231.12 359.9 C 236.727 356.987 242.393 354.157 248.12 351.41 C 250.466 350.221 251.455 347.392 250.36 345"/></svg>
